<svg width="28" height="22" viewBox="0 0 28 22" fill="none" xmlns="http://www.w3.org/2000/svg">
<path d="M2.22484 6.08169L3.1876 5.11984L8.43151 10.3619C8.51604 10.4459 8.58312 10.5458 8.6289 10.6558C8.67468 10.7659 8.69824 10.8839 8.69824 11.003C8.69824 11.1222 8.67468 11.2402 8.6289 11.3502C8.58312 11.4602 8.51604 11.5601 8.43151 11.6441L3.1876 16.8889L2.22575 15.9271L7.14753 11.0044L2.22484 6.08169Z" fill="black"/>
<path d="M10.7805 6.08145L11.7433 5.1196L16.9872 10.3617C17.0717 10.4457 17.1388 10.5456 17.1846 10.6556C17.2303 10.7656 17.2539 10.8836 17.2539 11.0028C17.2539 11.1219 17.2303 11.2399 17.1846 11.35C17.1388 11.46 17.0717 11.5599 16.9872 11.6439L11.7433 16.8887L10.7814 15.9268L15.7032 11.0041L10.7805 6.08145Z" fill="black"/>
<path d="M19.3362 6.08145L20.2989 5.1196L25.5428 10.3617C25.6274 10.4457 25.6945 10.5456 25.7402 10.6556C25.786 10.7656 25.8096 10.8836 25.8096 11.0028C25.8096 11.1219 25.786 11.2399 25.7402 11.35C25.6945 11.46 25.6274 11.5599 25.5428 11.6439L20.2989 16.8887L19.3371 15.9268L24.2589 11.0041L19.3362 6.08145Z" fill="black"/>
</svg>
