<svg width="36" height="29" viewBox="0 0 36 29" fill="none" xmlns="http://www.w3.org/2000/svg">
<path d="M2.86065 8.17665L4.09849 6.93999L10.8407 13.6798C10.9493 13.7878 11.0356 13.9162 11.0944 14.0577C11.1533 14.1992 11.1836 14.3509 11.1836 14.5041C11.1836 14.6573 11.1533 14.809 11.0944 14.9504C11.0356 15.0919 10.9493 15.2203 10.8407 15.3283L4.09849 22.0717L2.86182 20.835L9.18982 14.5058L2.86065 8.17665Z" fill="white"/>
<path d="M13.8607 8.17665L15.0985 6.93999L21.8407 13.6798C21.9493 13.7878 22.0356 13.9162 22.0944 14.0577C22.1533 14.1992 22.1836 14.3509 22.1836 14.5041C22.1836 14.6573 22.1533 14.809 22.0944 14.9504C22.0356 15.0919 21.9493 15.2203 21.8407 15.3283L15.0985 22.0717L13.8618 20.835L20.1898 14.5058L13.8607 8.17665Z" fill="white"/>
<path d="M24.8607 8.17665L26.0985 6.93999L32.8407 13.6798C32.9493 13.7878 33.0356 13.9162 33.0944 14.0577C33.1533 14.1992 33.1836 14.3509 33.1836 14.5041C33.1836 14.6573 33.1533 14.809 33.0944 14.9504C33.0356 15.0919 32.9493 15.2203 32.8407 15.3283L26.0985 22.0717L24.8618 20.835L31.1898 14.5058L24.8607 8.17665Z" fill="white"/>
</svg>
